0
SECTION
2
HEADER
9
$INSUNITS
70
4
9
$ACADVER
1
AC1014
9
$HANDSEED
5
FFFF
0
ENDSEC
0
SECTION
2
TABLES
0
TABLE
2
VPORT
5
8
100
AcDbSymbolTable
0
ENDTAB
0
TABLE
2
LTYPE
5
5
100
AcDbSymbolTable
0
LTYPE
5
14
100
AcDbSymbolTableRecord
100
AcDbLinetypeTableRecord
2
BYBLOCK
70
0
0
LTYPE
5
15
100
AcDbSymbolTableRecord
100
AcDbLinetypeTableRecord
2
BYLAYER
70
0
0
ENDTAB
0
TABLE
2
LAYER
5
2
100
AcDbSymbolTable
70
2
0
LAYER
5
50
100
AcDbSymbolTableRecord
100
AcDbLayerTableRecord
2
0
70
0
6
CONTINUOUS
0
ENDTAB
0
TABLE
2
STYLE
5
3
100
AcDbSymbolTable
70
1
0
STYLE
5
11
100
AcDbSymbolTableRecord
100
AcDbTextStyleTableRecord
2
STANDARD
70
0
0
ENDTAB
0
TABLE
2
VIEW
5
6
100
AcDbSymbolTable
70
0
0
ENDTAB
0
TABLE
2
UCS
5
7
100
AcDbSymbolTable
70
0
0
ENDTAB
0
TABLE
2
APPID
5
9
100
AcDbSymbolTable
70
2
0
APPID
5
12
100
AcDbSymbolTableRecord
100
AcDbRegAppTableRecord
2
ACAD
70
0
0
ENDTAB
0
TABLE
2
DIMSTYLE
5
A
100
AcDbSymbolTable
70
1
0
ENDTAB
0
TABLE
2
BLOCK_RECORD
5
1
100
AcDbSymbolTable
70
1
0
BLOCK_RECORD
5
1F
100
AcDbSymbolTableRecord
100
AcDbBlockTableRecord
2
*MODEL_SPACE
0
BLOCK_RECORD
5
1B
100
AcDbSymbolTableRecord
100
AcDbBlockTableRecord
2
*PAPER_SPACE
0
ENDTAB
0
ENDSEC
0
SECTION
2
BLOCKS
0
BLOCK
5
20
100
AcDbEntity
100
AcDbBlockBegin
2
*MODEL_SPACE
0
ENDBLK
5
21
100
AcDbEntity
100
AcDbBlockEnd
0
BLOCK
5
1C
100
AcDbEntity
100
AcDbBlockBegin
2
*PAPER_SPACE
0
ENDBLK
5
1D
100
AcDbEntity
100
AcDbBlockEnd
0
ENDSEC
0
SECTION
2
ENTITIES
0
ARC
5
100
100
AcDbEntity
8
0
100
AcDbCircle
10
84.55061374791461
20
0.56827575713866052
30
0
40
0.50000000000000711
210
0
220
0
230
1
100
AcDbArc
50
180
51
270
0
LINE
5
101
100
AcDbEntity
8
0
100
AcDbLine
10
84.55061374791461
20
0.068275757138653373
30
0
11
87.486702875528408
21
0.068275757138645823
31
0
0
ARC
5
102
100
AcDbEntity
8
0
100
AcDbCircle
10
87.486702875528408
20
-0.43172424286135425
30
0
40
0.49999999999999989
210
0
220
-0
230
1
100
AcDbArc
50
42.641003829921338
51
90
0
LINE
5
103
100
AcDbEntity
8
0
100
AcDbLine
10
87.854509121093614
20
-0.093022950092596507
30
0
11
88.842190100613166
21
-1.1655763788781932
31
0
0
ARC
5
104
100
AcDbEntity
8
0
100
AcDbCircle
10
88.474383855047961
20
-1.5042776716469521
30
0
40
0.50000000000000711
210
0
220
-0
230
1
100
AcDbArc
50
0
51
42.641003829921445
0
LINE
5
105
100
AcDbEntity
8
0
100
AcDbLine
10
88.974383855047975
20
-1.5042776716469521
30
0
11
88.974383855047975
21
-2.9623190204792231
31
0
0
ARC
5
106
100
AcDbEntity
8
0
100
AcDbCircle
10
88.474383855047961
20
-2.9623190204792231
30
0
40
0.5
210
-0
220
0
230
1
100
AcDbArc
50
-47.358996170069865
51
0
0
LINE
5
107
100
AcDbEntity
8
0
100
AcDbLine
10
88.813085147816778
20
-3.3301252660443801
30
0
11
87.596978418397654
21
-4.4499999999989459
31
0
0
LINE
5
108
100
AcDbEntity
8
0
100
AcDbLine
10
84.050613747914738
20
-4.4999999499989141
30
0
11
70.050613847914519
21
-4.499999949998621
31
0
0
LINE
5
109
100
AcDbEntity
8
0
100
AcDbLine
10
70.050613847914519
20
-4.499999949998621
30
0
11
70.050613847914377
21
9.4999999500013832
31
0
0
LINE
5
110
100
AcDbEntity
8
0
100
AcDbLine
10
70.050613847914377
20
9.4999999500013832
30
0
11
84.050613747914383
21
9.4999999500012056
31
0
0
LINE
5
111
100
AcDbEntity
8
0
100
AcDbLine
10
84.050613747914738
20
-4.4499999999989459
30
0
11
84.050613747914738
21
-4.4999999499989141
31
0
0
LWPOLYLINE
5
112
100
AcDbEntity
8
0
100
AcDbPolyline
90
20
70
1
43
0.0
10
107.65061384791458
20
19.379640000001366
42
0.41421356237309637
10
108.1506138479146
20
19.879640000001373
10
108.15061384791443
20
29.049999950001421
10
122.15061374791443
20
29.049999950001158
10
122.15061374791478
20
15.05000005000106
10
108.35772062910131
20
15.05000005000144
42
0.19891236737969281
10
108.00416723850802
20
14.903553440594708
10
107.47670040732119
20
14.376086609407876
42
-0.1989123673796693
10
107.1231470167279
20
14.229640000001137
10
103.60061374791465
20
14.229640000001137
42
0.41421356237307683
10
103.10061374791465
20
13.72964000000113
10
103.10061374791476
20
2.0000000500011605
10
89.100613847914843
20
2.0000000500015513
10
89.10061384791463
20
15.999999950001307
10
102.55061379791448
20
15.999999950001252
42
0.41421356237307289
10
103.05061379791447
20
16.499999950001246
10
103.05061379791448
20
17.664133141925451
42
-0.19891236737965498
10
103.19706040732122
20
18.017686532518717
10
104.41256726539706
20
19.233193390594586
42
-0.19891236737966206
10
104.76612065599033
20
19.379640000001316
0
ARC
5
113
100
AcDbEntity
8
0
100
AcDbCircle
10
84.55061374791461
20
38.929640000001058
30
0
40
0.50000000000000711
210
0
220
0
230
1
100
AcDbArc
50
180
51
270.00000000000159
0
LINE
5
114
100
AcDbEntity
8
0
100
AcDbLine
10
84.550613747914625
20
38.429640000001051
30
0
11
87.43510693983859
21
38.429640000001108
31
0
0
ARC
5
115
100
AcDbEntity
8
0
100
AcDbCircle
10
87.435106939838619
20
37.929640000001108
30
0
40
0.50000000000000211
210
0
220
-0
230
1
100
AcDbArc
50
44.999999999998849
51
90.000000000003254
0
LINE
5
116
100
AcDbEntity
8
0
100
AcDbLine
10
87.788660330431895
20
38.28319339059437
30
0
11
89.004167188507623
21
37.067686532518557
31
0
0
ARC
5
117
100
AcDbEntity
8
0
100
AcDbCircle
10
88.650613797914332
20
36.714133141925309
30
0
40
0.50000000000000711
210
-0
220
0
230
1
100
AcDbArc
50
0
51
44.999999999996547
0
LINE
5
118
100
AcDbEntity
8
0
100
AcDbLine
10
89.150613797914332
20
36.714133141925295
30
0
11
89.150613797914303
21
35.549999950001322
31
0
0
ARC
5
119
100
AcDbEntity
8
0
100
AcDbCircle
10
89.650613797914289
20
35.549999950001315
30
0
40
0.49999999999998934
210
0
220
0
230
1
100
AcDbArc
50
180
51
270
0
LINE
5
120
100
AcDbEntity
8
0
100
AcDbLine
10
89.650613797914289
20
35.049999950001308
30
0
11
103.10061374791462
21
35.049999950001251
31
0
0
LINE
5
121
100
AcDbEntity
8
0
100
AcDbLine
10
103.10061374791462
20
35.049999950001251
30
0
11
103.10061374791476
21
21.050000050001174
31
0
0
LINE
5
122
100
AcDbEntity
8
0
100
AcDbLine
10
103.10061374791476
20
21.050000050001174
30
0
11
89.100613847914843
21
21.050000050001564
31
0
0
LINE
5
123
100
AcDbEntity
8
0
100
AcDbLine
10
89.100613847914843
20
21.050000050001564
30
0
11
89.100613847914644
21
33.650000000001356
31
0
0
LINE
5
124
100
AcDbEntity
8
0
100
AcDbLine
10
84.050613747914738
20
33.600000050001093
30
0
11
70.050613847914519
21
33.600000050001384
31
0
0
LINE
5
125
100
AcDbEntity
8
0
100
AcDbLine
10
70.050613847914519
20
33.600000050001384
30
0
11
70.050613847914377
21
47.59999995000139
31
0
0
LINE
5
126
100
AcDbEntity
8
0
100
AcDbLine
10
70.050613847914377
20
47.59999995000139
30
0
11
84.050613747914383
21
47.599999950001205
31
0
0
LINE
5
127
100
AcDbEntity
8
0
100
AcDbLine
10
84.050613747914738
20
33.650000000001071
30
0
11
84.050613747914738
21
33.600000050001093
31
0
0
ARC
5
128
100
AcDbEntity
8
0
100
AcDbCircle
10
69.550613847914477
20
19.879640000001281
30
0
40
0.49999999999999156
210
-0
220
0
230
1
100
AcDbArc
50
-90
51
0
0
LINE
5
129
100
AcDbEntity
8
0
100
AcDbLine
10
70.050613847914462
20
19.879640000001292
30
0
11
70.050613847914391
21
28.549999950001382
31
0
0
LINE
5
130
100
AcDbEntity
8
0
100
AcDbLine
10
65.00061374791467
20
14.600000000001172
30
0
11
65.000613747914713
21
12.050000050001097
31
0
0
LINE
5
131
100
AcDbEntity
8
0
100
AcDbLine
10
65.000613747914713
20
12.050000050001097
30
0
11
51.00061384791465
21
12.050000050001426
31
0
0
LINE
5
132
100
AcDbEntity
8
0
100
AcDbLine
10
51.00061384791465
20
12.050000050001426
30
0
11
51.000613847914458
21
26.049999950001308
31
0
0
LINE
5
133
100
AcDbEntity
8
0
100
AcDbLine
10
51.000613847914458
20
26.049999950001308
30
0
11
65.000613747914457
21
26.049999950001215
31
0
0
LINE
5
134
100
AcDbEntity
8
0
100
AcDbLine
10
65.000613747914457
20
26.049999950001215
30
0
11
65.000613747914585
21
19.879640000001238
31
0
0
ARC
5
135
100
AcDbEntity
8
0
100
AcDbCircle
10
65.500613747914585
20
19.879640000001253
30
0
40
0.50000000000000711
210
0
220
0
230
1
100
AcDbArc
50
180
51
269.99999999999835
0
LINE
5
136
100
AcDbEntity
8
0
100
AcDbLine
10
65.500613747914571
20
19.379640000001245
30
0
11
69.550613847914477
21
19.379640000001292
31
0
0
LWPOLYLINE
5
137
100
AcDbEntity
8
0
100
AcDbPolyline
90
20
70
1
43
0.0
10
48.910166097691913
20
73.412618882414662
42
0.34886211407169093
10
46.975613797914576
20
70.977404539012241
10
46.975613797914455
20
7.0788844829271023
42
-0.30195908251623155
10
45.44405398418241
20
4.7740800214551271
42
0.10074516272860518
10
8.5455476156633647
20
-20.393593765790161
10
8.5386496785342736
20
-20.399875412614218
10
3.6970562748482916
20
-25.241468816300198
42
0.41421356237309759
10
3.6970562748483076
20
-28.918424078469137
10
29.082189719446951
20
-54.303557523067354
42
0.41421356237309509
10
32.759144981617077
20
-54.303557523067319
10
38.716519613112894
20
-48.346182891571353
42
-0.19891236737966159
10
88.814722465040091
20
-27.594827819784413
10
116.2897224650328
20
-27.594827819784523
42
0.41421356237309948
10
118.88972246503283
20
-24.994827819784462
10
118.88972246503278
20
-22.424999999999041
42
-0.41421356237310319
10
121.28972246503278
20
-20.024999999999014
10
161.67561379791499
20
-20.02499999999911
42
0.41421356237309409
10
164.27561379791499
20
-17.424999999999141
10
164.27561379791524
20
59.377739450814396
42
0.29250998844602732
10
162.76541056132612
20
61.738320526409822
42
0.16668475007301803
0
LWPOLYLINE
5
138
100
AcDbEntity
8
0
100
AcDbPolyline
90
4
70
1
43
0.0
10
103.10061374791462
20
73.149999950001245
10
103.10061374791476
20
59.150000050001168
10
89.100613847914843
20
59.150000050001566
10
89.10061384791463
20
73.149999950001316
0
LWPOLYLINE
5
139
100
AcDbEntity
8
0
100
AcDbPolyline
90
4
70
1
43
0.0
10
84.050613747914383
20
66.649999950001202
10
84.050613747914738
20
52.650000050001097
10
70.050613847914519
20
52.650000050001388
10
70.050613847914377
20
66.649999950001387
0
LWPOLYLINE
5
140
100
AcDbEntity
8
0
100
AcDbPolyline
90
4
70
1
43
0.0
10
51.00061384791465
20
31.100000050001427
10
51.000613847914458
20
45.099999950001319
10
65.000613747914457
20
45.099999950001219
10
65.000613747914713
20
31.1000000500011
0
LWPOLYLINE
5
141
100
AcDbEntity
8
0
100
AcDbPolyline
90
4
70
1
43
0.0
10
89.100613847914843
20
40.100000050001569
10
89.10061384791463
20
54.099999950001312
10
103.10061374791462
20
54.099999950001248
10
103.10061374791476
20
40.100000050001164
0
LWPOLYLINE
5
142
100
AcDbEntity
8
0
100
AcDbPolyline
90
4
70
1
43
0.0
10
122.15061374791443
20
67.14999995000116
10
122.15061374791478
20
53.150000050001069
10
108.1506138479147
20
53.150000050001452
10
108.15061384791443
20
67.14999995000143
0
LWPOLYLINE
5
143
100
AcDbEntity
8
0
100
AcDbPolyline
90
4
70
1
43
0.0
10
65.000613747914457
20
64.149999950001217
10
65.000613747914713
20
50.150000050001111
10
51.00061384791465
20
50.150000050001431
10
51.000613847914458
20
64.149999950001316
0
LWPOLYLINE
5
144
100
AcDbEntity
8
0
100
AcDbPolyline
90
4
70
1
43
0.0
10
108.1506138479147
20
34.100000050001448
10
108.15061384791443
20
48.099999950001418
10
122.15061374791443
20
48.099999950001155
10
122.15061374791478
20
34.100000050001064
0
LWPOLYLINE
5
145
100
AcDbEntity
8
0
100
AcDbPolyline
90
4
70
1
43
0.0
10
141.20061374791445
20
55.149999950001231
10
141.20061374791473
20
41.150000050000997
10
127.20061384791444
20
41.150000050001125
10
127.20061384791447
20
55.149999950001288
0
LWPOLYLINE
5
146
100
AcDbEntity
8
0
100
AcDbPolyline
90
4
70
1
43
0.0
10
160.25061374791434
20
41.150000050001324
10
146.25061384791459
20
41.150000050001488
10
146.25061384791428
20
55.149999950001373
10
160.25061374791426
20
55.149999950001174
0
LWPOLYLINE
5
147
100
AcDbEntity
8
0
100
AcDbPolyline
90
4
70
1
43
0.0
10
160.25061374791434
20
22.10000005000132
10
146.25061384791459
20
22.100000050001498
10
146.25061384791428
20
36.099999950001369
10
160.25061374791426
20
36.09999995000117
0
LWPOLYLINE
5
148
100
AcDbEntity
8
0
100
AcDbPolyline
90
4
70
1
43
0.0
10
127.20061384791447
20
36.099999950001283
10
141.20061374791445
20
36.099999950001219
10
141.20061374791473
20
22.100000050001
10
127.20061384791444
20
22.100000050001121
0
LWPOLYLINE
5
149
100
AcDbEntity
8
0
100
AcDbPolyline
90
4
70
1
43
0.0
10
127.20061384791447
20
17.049999950001286
10
141.20061374791445
20
17.049999950001222
10
141.20061374791473
20
3.0500000500009961
10
127.20061384791444
20
3.0500000500011204
0
LWPOLYLINE
5
150
100
AcDbEntity
8
0
100
AcDbPolyline
90
4
70
1
43
0.0
10
160.25061374791434
20
3.0500000500013158
10
146.25061384791459
20
3.0500000500014846
10
146.25061384791428
20
17.049999950001364
10
160.25061374791426
20
17.049999950001169
0
LWPOLYLINE
5
151
100
AcDbEntity
8
0
100
AcDbPolyline
90
4
70
1
43
0.0
10
160.25061374791434
20
-15.999999949998687
10
146.25061384791459
20
-15.999999949998509
10
146.25061384791428
20
-2.0000000499986381
10
160.25061374791426
20
-2.0000000499988335
0
LWPOLYLINE
5
152
100
AcDbEntity
8
0
100
AcDbPolyline
90
4
70
1
43
0.0
10
127.20061384791447
20
-2.0000000499987181
10
141.20061374791445
20
-2.0000000499987802
10
141.20061374791473
20
-15.999999949999006
10
127.20061384791444
20
-15.999999949998882
0
LWPOLYLINE
5
153
100
AcDbEntity
8
0
100
AcDbPolyline
90
4
70
1
43
0.0
10
108.15061384791443
20
9.9999999500014169
10
122.15061374791443
20
9.9999999500011594
10
122.15061374791478
20
-3.9999999499989425
10
108.1506138479147
20
-3.9999999499985606
0
LWPOLYLINE
5
154
100
AcDbEntity
8
0
100
AcDbPolyline
90
4
70
1
43
0.0
10
51.000613847914458
20
6.9999999500013121
10
65.000613747914457
20
6.9999999500012056
10
65.000613747914713
20
-6.9999999499989052
10
51.00061384791465
20
-6.9999999499985766
0
LWPOLYLINE
5
155
100
AcDbEntity
8
0
100
AcDbPolyline
90
4
70
1
43
0.0
10
59.050813526523896
20
-14.409888296032252
10
72.573774997978248
20
-10.786421690478782
10
76.197241603532177
20
-24.309383161933475
10
62.674280132077627
20
-27.932849767487184
0
LWPOLYLINE
5
156
100
AcDbEntity
8
0
100
AcDbPolyline
90
4
70
1
43
0.0
10
38.315265744990725
20
-24.976760849749915
10
50.439621311370324
20
-17.976760899749891
10
57.439621261370448
20
-30.101116466129938
10
45.315265694990771
20
-37.101116416129962
0
LWPOLYLINE
5
157
100
AcDbEntity
8
0
100
AcDbPolyline
90
4
70
1
43
0.0
10
28.790265744990791
20
-8.4789769076563104
10
40.914621311370389
20
-1.4789769576562861
10
47.914621261370513
20
-13.603332524036338
10
35.790265694990836
20
-20.603332474036343
0
LWPOLYLINE
5
158
100
AcDbEntity
8
0
100
AcDbPolyline
90
4
70
1
43
0.0
10
7.5507883030260015
20
-27.079946447382611
10
17.450283168927161
20
-17.180451581481726
10
27.349778034827814
20
-27.079946447382774
10
17.450283168926937
20
-36.979441313283601
0
LWPOLYLINE
5
159
100
AcDbEntity
8
0
100
AcDbPolyline
90
4
70
1
43
0.0
10
21.021172484629744
20
-40.55033062898633
10
30.920667350530913
20
-30.65083576308546
10
40.820162216431569
20
-40.550330628986472
10
30.920667350530682
20
-50.449825494887321
0
LWPOLYLINE
5
160
100
AcDbEntity
8
0
100
AcDbPolyline
90
4
70
1
43
0.0
10
81.814722515032642
20
-9.5698278697842731
10
95.814722415032648
20
-9.5698278697845307
10
95.814722415032989
20
-23.569827769784759
10
81.814722515032969
20
-23.569827769784048
0
CIRCLE
5
161
100
AcDbEntity
8
0
100
AcDbCircle
10
143.72561379791449
20
0.52500000000130598
30
0
40
1.124999950000003
210
0
220
0
230
1
0
LWPOLYLINE
5
162
100
AcDbEntity
8
0
100
AcDbPolyline
90
4
70
1
43
0.0
10
114.86472241503273
20
-23.569827769784276
10
100.86472251503281
20
-23.569827769784261
10
100.86472251503274
20
-9.5698278697842998
10
114.86472241503273
20
-9.5698278697843353
0
CIRCLE
5
163
100
AcDbEntity
8
0
100
AcDbCircle
10
64.171511831664787
20
70.17500000000129
30
0
40
1.124999950000003
210
0
220
0
230
1
0
CIRCLE
5
164
100
AcDbEntity
8
0
100
AcDbCircle
10
143.72561379791441
20
57.67500000000129
30
0
40
1.124999950000003
210
0
220
0
230
1
0
CIRCLE
5
165
100
AcDbEntity
8
0
100
AcDbCircle
10
121.03266813147364
20
-10.1679456664396
30
0
40
1.124999950000003
210
0
220
0
230
1
0
CIRCLE
5
166
100
AcDbEntity
8
0
100
AcDbCircle
10
76.884686198654933
20
-7.8267637081922921
30
0
40
1.124999950000003
210
0
220
0
230
1
0
CIRCLE
5
167
100
AcDbEntity
8
0
100
AcDbCircle
10
33.174196972632913
20
-25.932241163575618
30
0
40
1.1249999499999985
210
0
220
0
230
1
0
LINE
5
168
100
AcDbEntity
8
0
100
AcDbLine
10
87.596978418397654
20
-4.4499999999989459
30
0
11
84.050613747914738
21
-4.4499999999989459
31
0
0
LINE
5
169
100
AcDbEntity
8
0
100
AcDbLine
10
89.100613847914644
20
33.650000000001356
30
0
11
84.050613747914738
21
33.650000000001071
31
0
0
LINE
5
170
100
AcDbEntity
8
0
100
AcDbLine
10
70.050613847914533
20
14.600000000001341
30
0
11
65.00061374791467
21
14.600000000001172
31
0
0
LINE
5
171
100
AcDbEntity
8
0
100
AcDbLine
10
84.050613747914383
20
9.4999999500012056
30
0
11
84.050613747914596
21
0.56827575713863776
31
0
0
LINE
5
172
100
AcDbEntity
8
0
100
AcDbLine
10
84.050613747914383
20
47.599999950001205
30
0
11
84.050613747914596
21
38.929640000001029
31
0
0
LINE
5
173
100
AcDbEntity
8
0
100
AcDbLine
10
70.050613847914391
20
28.549999950001382
30
0
11
84.050613747914383
21
28.549999950001204
31
0
0
LINE
5
174
100
AcDbEntity
8
0
100
AcDbLine
10
84.050613747914383
20
28.549999950001204
30
0
11
84.050613747914738
21
14.550000050001087
31
0
0
LINE
5
175
100
AcDbEntity
8
0
100
AcDbLine
10
84.050613747914738
20
14.550000050001087
30
0
11
70.050613847914533
21
14.550000050001376
31
0
0
LINE
5
176
100
AcDbEntity
8
0
100
AcDbLine
10
70.050613847914533
20
14.550000050001376
30
0
11
70.050613847914533
21
14.600000000001341
31
0
0
ENDSEC
0
SECTION
2
OBJECTS
0
DICTIONARY
5
C
100
AcDbDictionary
3
ACAD_GROUP
350
D
3
ACAD_MLINESTYLE
350
17
0
DICTIONARY
5
D
100
AcDbDictionary
0
DICTIONARY
5
1A
330
C
100
AcDbDictionary
0
DICTIONARY
5
17
100
AcDbDictionary
0
ENDSEC
0
EOF
